<mxfile host="app.diagrams.net" agent="Mozilla/5.0 (Windows NT 10.0; Win64; x64) AppleWebKit/537.36 (KHTML, like Gecko) Chrome/130.0.0.0 Safari/537.36 Edg/130.0.0.0" version="24.8.3">
  <diagram name="Page-1" id="74e2e168-ea6b-b213-b513-2b3c1d86103e">
    <mxGraphModel dx="1426" dy="757" grid="1" gridSize="10" guides="1" tooltips="1" connect="1" arrows="1" fold="1" page="1" pageScale="1" pageWidth="1100" pageHeight="850" background="none" math="0" shadow="0">
      <root>
        <mxCell id="0" />
        <mxCell id="1" parent="0" />
        <mxCell id="KUC6EJEMOKRjzq3ntxEJ-3" value="" style="edgeStyle=orthogonalEdgeStyle;rounded=0;orthogonalLoop=1;jettySize=auto;html=1;" edge="1" parent="1" source="KUC6EJEMOKRjzq3ntxEJ-1" target="KUC6EJEMOKRjzq3ntxEJ-2">
          <mxGeometry relative="1" as="geometry" />
        </mxCell>
        <mxCell id="KUC6EJEMOKRjzq3ntxEJ-1" value="开始" style="ellipse;whiteSpace=wrap;html=1;" vertex="1" parent="1">
          <mxGeometry x="50" y="30" width="90" height="50" as="geometry" />
        </mxCell>
        <mxCell id="KUC6EJEMOKRjzq3ntxEJ-5" value="" style="edgeStyle=orthogonalEdgeStyle;rounded=0;orthogonalLoop=1;jettySize=auto;html=1;" edge="1" parent="1" source="KUC6EJEMOKRjzq3ntxEJ-2" target="KUC6EJEMOKRjzq3ntxEJ-4">
          <mxGeometry relative="1" as="geometry" />
        </mxCell>
        <mxCell id="KUC6EJEMOKRjzq3ntxEJ-2" value="创建客户" style="whiteSpace=wrap;html=1;" vertex="1" parent="1">
          <mxGeometry x="35" y="120" width="120" height="60" as="geometry" />
        </mxCell>
        <mxCell id="KUC6EJEMOKRjzq3ntxEJ-7" value="" style="edgeStyle=orthogonalEdgeStyle;rounded=0;orthogonalLoop=1;jettySize=auto;html=1;" edge="1" parent="1" source="KUC6EJEMOKRjzq3ntxEJ-4" target="KUC6EJEMOKRjzq3ntxEJ-6">
          <mxGeometry relative="1" as="geometry" />
        </mxCell>
        <mxCell id="KUC6EJEMOKRjzq3ntxEJ-4" value="自动绑定客户经理" style="whiteSpace=wrap;html=1;" vertex="1" parent="1">
          <mxGeometry x="35" y="215" width="120" height="60" as="geometry" />
        </mxCell>
        <mxCell id="KUC6EJEMOKRjzq3ntxEJ-6" value="绑定单个或多个联系人" style="whiteSpace=wrap;html=1;" vertex="1" parent="1">
          <mxGeometry x="35" y="315" width="120" height="60" as="geometry" />
        </mxCell>
      </root>
    </mxGraphModel>
  </diagram>
</mxfile>
